<svg width="418" height="80" viewBox="0 0 418 80" fill="none" xmlns="http://www.w3.org/2000/svg">
<g clip-path="url(#clip0_1_66)">
<path d="M209.04 76.9L182.22 7.23999V70.51L190.86 74.11V76H171.6V74.11L180.06 70.51V7.23999L171.78 5.97999V4H191.67L214.26 61.78L237.3 4H255.48V5.97999L247.2 7.23999V72.76L255.48 74.11V76H229.02V74.11L237.3 72.76V9.94L210.66 76.9H209.04ZM283.085 76.9C278.645 76.9 274.625 75.91 271.025 73.93C267.425 71.89 264.575 69.04 262.475 65.38C260.375 61.72 259.325 57.49 259.325 52.69C259.325 47.89 260.345 43.69 262.385 40.09C264.485 36.43 267.275 33.61 270.755 31.63C274.295 29.59 278.225 28.57 282.545 28.57C286.325 28.57 289.715 29.41 292.715 31.09C295.715 32.77 298.055 35.11 299.735 38.11C301.415 41.05 302.285 44.44 302.345 48.28H269.225V57.19C269.225 62.47 270.395 66.76 272.735 70.06C275.135 73.3 278.585 74.92 283.085 74.92C287.225 74.92 290.885 73.75 294.065 71.41C297.245 69.07 299.195 66.04 299.915 62.32H301.985C301.145 66.76 299.015 70.3 295.595 72.94C292.175 75.58 288.005 76.9 283.085 76.9ZM292.445 46.03C292.445 40.81 291.635 36.94 290.015 34.42C288.395 31.84 285.875 30.55 282.455 30.55C278.435 30.55 275.315 31.96 273.095 34.78C270.875 37.6 269.615 41.35 269.315 46.03H292.445ZM323.364 76.9C319.404 76.9 316.224 75.91 313.824 73.93C311.484 71.95 310.314 68.8 310.314 64.48V32.08L303.924 31.18V29.38H310.314V21.91L319.314 19.66V29.38H331.014V31.18L319.314 32.08V64.3C319.314 70.66 321.594 73.84 326.154 73.84C327.114 73.84 328.014 73.69 328.854 73.39C329.754 73.09 330.444 72.79 330.924 72.49C331.464 72.19 331.794 71.98 331.914 71.86L333.084 73.3C330.384 75.7 327.144 76.9 323.364 76.9ZM332.335 74.2L338.635 73.3V32.08L332.335 31.18V29.38H347.635V36.31C351.415 31.15 355.675 28.57 360.415 28.57C362.695 28.57 364.705 29.17 366.445 30.37C368.185 31.51 369.055 33.16 369.055 35.32C369.055 36.88 368.545 38.2 367.525 39.28C366.505 40.3 365.155 40.81 363.475 40.81C361.555 40.81 359.995 40.06 358.795 38.56C359.455 37.72 359.785 36.82 359.785 35.86C359.785 34.84 359.425 34.03 358.705 33.43C358.045 32.77 357.145 32.44 356.005 32.44C354.745 32.44 353.455 33.04 352.135 34.24C350.815 35.38 349.315 37.18 347.635 39.64V73.3L354.835 74.2V76H332.335V74.2ZM383.4 76.9C379.56 76.9 376.41 75.91 373.95 73.93C371.49 71.89 370.26 68.89 370.26 64.93C370.26 59.29 372.63 55.3 377.37 52.96C382.11 50.56 387.6 49.36 393.84 49.36H399.87V42.43C399.87 39.31 399.51 36.91 398.79 35.23C398.13 33.49 397.08 32.29 395.64 31.63C394.2 30.91 392.25 30.55 389.79 30.55C386.97 30.55 384.87 31.12 383.49 32.26C382.11 33.34 381.42 34.81 381.42 36.67C381.42 38.41 382.26 39.55 383.94 40.09C383.94 41.59 383.37 42.91 382.23 44.05C381.09 45.19 379.74 45.76 378.18 45.76C376.5 45.76 375.15 45.31 374.13 44.41C373.11 43.45 372.6 42.01 372.6 40.09C372.6 36.61 374.34 33.82 377.82 31.72C381.3 29.62 385.65 28.57 390.87 28.57C402.87 28.57 408.87 33.79 408.87 44.23V69.97C408.87 71.29 409.14 72.31 409.68 73.03C410.28 73.69 411.12 74.02 412.2 74.02C413.22 74.02 414.03 73.69 414.63 73.03C415.23 72.31 415.53 71.35 415.53 70.15H417.42C417.42 72.25 416.73 73.9 415.35 75.1C414.03 76.3 412.17 76.9 409.77 76.9C407.01 76.9 404.67 76.12 402.75 74.56C400.89 72.94 399.93 70.45 399.87 67.09C398.43 70.15 396.21 72.55 393.21 74.29C390.27 76.03 387 76.9 383.4 76.9ZM388.35 72.94C389.97 72.94 391.62 72.46 393.3 71.5C395.04 70.54 396.51 69.16 397.71 67.36C398.91 65.5 399.63 63.28 399.87 60.7V51.34H393.84C388.92 51.34 385.23 52.45 382.77 54.67C380.37 56.83 379.17 59.89 379.17 63.85C379.17 67.15 379.95 69.49 381.51 70.87C383.07 72.25 385.35 72.94 388.35 72.94Z" fill="white"/>
<path d="M141.878 76.0338H184.701L128.658 2.9668H85.8354L85.8389 2.97141L70.534 22.9257H43.0229L43.0283 22.9331L2.29932 76.0338H11.0685L47.4685 28.7219L83.7565 76.0338H119.517L79.1001 23.3405L90.2806 8.7629L141.878 76.0338Z" fill="white"/>
<path d="M44.7581 53.123H35.9465V61.9346H44.7581V53.123Z" fill="white"/>
<path d="M44.7581 67.2217H35.9465V76.0332H44.7581V67.2217Z" fill="white"/>
<path d="M58.8569 53.123H50.0454V61.9346H58.8569V53.123Z" fill="white"/>
<path d="M58.8569 67.2217H50.0454V76.0332H58.8569V67.2217Z" fill="white"/>
</g>
<defs>
<clipPath id="clip0_1_66">
<rect width="417" height="80" fill="white" transform="translate(0.890625)"/>
</clipPath>
</defs>
</svg>
