<svg width="100" height="100" viewBox="0 0 100 100" fill="none" xmlns="http://www.w3.org/2000/svg">
<path d="M50.1875 82.2031C51.4531 82.2031 55.5156 80.5156 61.3281 75.1406C70.5625 66.6406 81.3438 51.7031 81.3438 37.6406C81.3438 29.3277 78.0415 21.3553 72.1634 15.4772C66.2853 9.59915 58.3129 6.29688 50 6.29688C41.6871 6.29688 33.7147 9.59915 27.8366 15.4772C21.9585 21.3553 18.6562 29.3277 18.6562 37.6406C18.6562 59.7344 44.3906 81.7344 50.1875 82.2031ZM50 18.9688C52.9544 18.9688 55.8424 19.8448 58.2988 21.4862C60.7553 23.1275 62.6699 25.4604 63.8004 28.1899C64.931 30.9194 65.2268 33.9228 64.6505 36.8204C64.0741 39.718 62.6515 42.3796 60.5624 44.4687C58.4734 46.5577 55.8118 47.9804 52.9142 48.5567C50.0166 49.1331 47.0131 48.8373 44.2837 47.7067C41.5542 46.5761 39.2213 44.6615 37.5799 42.2051C35.9386 39.7486 35.0625 36.8606 35.0625 33.9063C35.0666 29.9458 36.6417 26.1488 39.4422 23.3484C42.2426 20.548 46.0396 18.9729 50 18.9688ZM84.0625 85.1406C84.0625 88.0625 72.0469 93.7344 50 93.7344C27.9531 93.7344 15.9375 88.0625 15.9375 85.1406C15.9375 83.1875 21.5625 79.5625 34.0937 77.6875C34.3115 77.6531 34.5224 77.5846 34.7187 77.4844C40.5937 83.0313 46.3438 86.5938 49.8125 86.8594H50.25C54.9375 86.8594 61.7656 81.0938 64.5156 78.5625C64.8594 78.25 65.2031 77.9063 65.5469 77.5625C65.6647 77.6008 65.7847 77.6322 65.9062 77.6563C78.4375 79.5625 84.0625 83.1875 84.0625 85.1406Z" fill="white"/>
</svg>
